<?xml version="1.0" standalone="no"?>
<!DOCTYPE svg PUBLIC "-//W3C//DTD SVG 20010904//EN"
 "http://www.w3.org/TR/2001/REC-SVG-20010904/DTD/svg10.dtd">
<svg version="1.0" xmlns="http://www.w3.org/2000/svg"
 width="200.000000pt" height="200.000000pt" viewBox="0 0 200.000000 200.000000"
 preserveAspectRatio="xMidYMid meet">
<metadata>
Created by potrace 1.14, written by Peter Selinger 2001-2017
</metadata>
<g transform="translate(0.000000,200.000000) scale(0.100000,-0.100000)"
fill="#000000" stroke="none">
<path d="M144 1976 c-61 -28 -117 -92 -133 -149 -9 -31 -11 -261 -9 -852 3
-904 -2 -835 74 -909 71 -69 39 -67 945 -64 908 3 839 -2 913 74 68 70 66 40
66 923 0 544 -4 809 -11 836 -14 53 -99 136 -155 153 -31 9 -237 12 -840 12
l-799 0 -51 -24z m809 -267 c53 -29 52 -31 -20 -68 l-43 -21 0 -66 0 -65 -63
36 c-35 19 -69 35 -75 35 -6 0 -38 -16 -71 -35 l-61 -36 0 -127 0 -127 -120
-75 -119 -75 -1 -80 0 -80 118 -65 117 -65 5 -143 5 -143 65 -36 66 -36 67 39
67 38 0 423 0 423 28 1 c15 0 59 2 97 3 39 1 76 1 83 -2 9 -3 12 -111 12 -496
l0 -491 -67 -34 c-38 -19 -118 -62 -179 -96 l-111 -62 -174 97 -174 98 -5 142
-5 142 -117 65 -118 65 0 207 0 206 120 75 119 75 3 134 3 134 174 98 175 98
75 -41 c42 -23 98 -54 124 -69z"/>
</g>
</svg>
